<svg width="20" height="21" viewBox="0 0 20 21" fill="none" xmlns="http://www.w3.org/2000/svg">
<g id="mdi:attachment-vertical" opacity="0.5">
<path id="Vector" d="M13.7498 5.5V15.0833C13.7498 15.9674 13.3986 16.8152 12.7735 17.4404C12.1483 18.0655 11.3005 18.4167 10.4164 18.4167C9.53238 18.4167 8.68453 18.0655 8.05941 17.4404C7.43429 16.8152 7.0831 15.9674 7.0831 15.0833V4.66666C7.0831 4.11413 7.30259 3.58422 7.69329 3.19352C8.08399 2.80282 8.6139 2.58333 9.16643 2.58333C9.71897 2.58333 10.2489 2.80282 10.6396 3.19352C11.0303 3.58422 11.2498 4.11413 11.2498 4.66666V13.4167C11.2498 13.6377 11.162 13.8496 11.0057 14.0059C10.8494 14.1622 10.6374 14.25 10.4164 14.25C10.1954 14.25 9.98346 14.1622 9.82718 14.0059C9.6709 13.8496 9.5831 13.6377 9.5831 13.4167V5.5H8.3331V13.4167C8.3331 13.9692 8.55259 14.4991 8.94329 14.8898C9.33399 15.2805 9.8639 15.5 10.4164 15.5C10.969 15.5 11.4989 15.2805 11.8896 14.8898C12.2803 14.4991 12.4998 13.9692 12.4998 13.4167V4.66666C12.4998 3.78261 12.1486 2.93476 11.5235 2.30964C10.8983 1.68452 10.0505 1.33333 9.16643 1.33333C8.28238 1.33333 7.43453 1.68452 6.80941 2.30964C6.18429 2.93476 5.8331 3.78261 5.8331 4.66666V15.0833C5.8331 16.2989 6.31598 17.4647 7.17553 18.3242C8.03507 19.1838 9.20086 19.6667 10.4164 19.6667C11.632 19.6667 12.7978 19.1838 13.6573 18.3242C14.5169 17.4647 14.9998 16.2989 14.9998 15.0833V5.5H13.7498Z" fill="black"/>
</g>
</svg>
