<svg width="24" height="24" viewBox="0 0 24 24" fill="none" xmlns="http://www.w3.org/2000/svg">
<g id="fluent:emoji-48-regular">
<path id="Vector" d="M8.75 11C9.08152 11 9.39946 10.8683 9.63388 10.6339C9.8683 10.3995 10 10.0815 10 9.75C10 9.41848 9.8683 9.10054 9.63388 8.86612C9.39946 8.6317 9.08152 8.5 8.75 8.5C8.41848 8.5 8.10054 8.6317 7.86612 8.86612C7.6317 9.10054 7.5 9.41848 7.5 9.75C7.5 10.0815 7.6317 10.3995 7.86612 10.6339C8.10054 10.8683 8.41848 11 8.75 11ZM16.5 9.75C16.5 10.0815 16.3683 10.3995 16.1339 10.6339C15.8995 10.8683 15.5815 11 15.25 11C14.9185 11 14.6005 10.8683 14.3661 10.6339C14.1317 10.3995 14 10.0815 14 9.75C14 9.41848 14.1317 9.10054 14.3661 8.86612C14.6005 8.6317 14.9185 8.5 15.25 8.5C15.5815 8.5 15.8995 8.6317 16.1339 8.86612C16.3683 9.10054 16.5 9.41848 16.5 9.75ZM9.226 17.3405C10.0823 17.7854 11.0351 18.012 12 18C12.9648 18.012 13.9176 17.7854 14.7738 17.3406C15.63 16.8957 16.3631 16.2463 16.908 15.45C16.9947 15.3088 17.0217 15.1389 16.9831 14.9778C16.9445 14.8166 16.8435 14.6774 16.7022 14.5907C16.561 14.5041 16.3912 14.4771 16.23 14.5157C16.0689 14.5543 15.9297 14.6553 15.843 14.7965C15.4104 15.4109 14.834 15.9101 14.1642 16.2506C13.4943 16.5911 12.7513 16.7626 12 16.75C11.2487 16.7623 10.5057 16.5907 9.83581 16.2503C9.16592 15.9098 8.58942 15.4107 8.1565 14.7965C8.06984 14.6553 7.93063 14.5543 7.76949 14.5157C7.60835 14.4771 7.43848 14.5041 7.29725 14.5907C7.15602 14.6774 7.055 14.8166 7.01642 14.9778C6.97783 15.1389 7.00484 15.3088 7.0915 15.45C7.63647 16.2463 8.36968 16.8957 9.226 17.3405ZM12 2C6.477 2 2 6.477 2 12C2 17.523 6.477 22 12 22C17.523 22 22 17.523 22 12C22 6.477 17.523 2 12 2ZM3.25 12C3.25 7.1675 7.1675 3.25 12 3.25C16.8325 3.25 20.75 7.1675 20.75 12C20.75 16.8325 16.8325 20.75 12 20.75C7.1675 20.75 3.25 16.8325 3.25 12Z" fill="black" fill-opacity="0.5"/>
</g>
</svg>
