<svg width="24" height="24" viewBox="0 0 24 24" fill="none" xmlns="http://www.w3.org/2000/svg">
<g id="Question" opacity="0.7" clip-path="url(#clip0_1334_7203)">
<path id="Vector" d="M20.4853 3.51471C18.2188 1.24823 15.2053 0 12 0C9.11462 0 6.32629 1.03876 4.14844 2.92511C3.99957 3.05402 3.98346 3.27924 4.11237 3.42792C4.24127 3.57678 4.46631 3.5929 4.61517 3.46399C6.66339 1.68988 9.28601 0.71283 12 0.71283C15.0148 0.71283 17.8493 1.8869 19.9812 4.0188C22.1131 6.1507 23.2872 8.98517 23.2872 12C23.2872 15.0148 22.1131 17.8493 19.9812 19.9812C17.8493 22.1131 15.0148 23.2872 12 23.2872C8.98517 23.2872 6.1507 22.1131 4.0188 19.9812C1.8869 17.8493 0.71283 15.0148 0.71283 12C0.71283 9.19574 1.74792 6.50739 3.62769 4.43042C3.7597 4.28448 3.74835 4.05908 3.60242 3.92688C3.45648 3.79486 3.23108 3.80603 3.09906 3.95215C1.10065 6.1604 0 9.01849 0 12C0 15.2053 1.24823 18.2188 3.51471 20.4853C5.78119 22.7518 8.79474 24 12 24C15.2053 24 18.2188 22.7518 20.4853 20.4853C22.7518 18.2188 24 15.2053 24 12C24 8.79474 22.7518 5.78119 20.4853 3.51471Z" fill="#393939"/>
<path id="Vector_2" d="M11.5468 16.2715C10.4461 16.2715 9.55054 17.1768 9.55054 18.2893C9.55054 19.4019 10.4461 20.3071 11.5468 20.3071C12.0871 20.3071 12.5959 20.0922 12.9796 19.7016C13.3513 19.3231 13.5646 18.8084 13.5646 18.2893C13.5646 17.7559 13.3531 17.2507 12.9693 16.8668C12.5853 16.483 12.0801 16.2715 11.5468 16.2715ZM11.5468 19.5943C10.8391 19.5943 10.2634 19.0089 10.2634 18.2893C10.2634 17.5697 10.8391 16.9843 11.5468 16.9843C12.2541 16.9843 12.8516 17.582 12.8516 18.2893C12.8516 18.9966 12.2541 19.5943 11.5468 19.5943Z" fill="#393939"/>
<path id="Vector_3" d="M14.9814 10.7049C15.1299 10.8345 15.355 10.8192 15.4844 10.6708C16.3434 9.68683 16.779 8.65668 16.779 7.60913C16.779 6.50446 16.2828 5.50305 15.3819 4.78949C14.4763 4.07227 13.2473 3.69324 11.8275 3.69324C10.0711 3.69324 8.98474 4.28613 8.38287 4.78345C7.65503 5.38477 7.22034 6.19116 7.22034 6.94043C7.22034 7.42749 7.41974 7.85651 7.78192 8.14856C8.08002 8.38898 8.47699 8.52686 8.8714 8.52686C9.5509 8.52686 9.84882 8.08759 10.0881 7.73456C10.3914 7.2876 10.6776 6.86536 11.7625 6.86536C12.1343 6.86536 13.3478 6.94556 13.3478 7.97607C13.3478 8.75391 12.6287 9.30597 11.9943 9.79303C11.8375 9.91315 11.6896 10.0269 11.5515 10.144C10.8209 10.7737 9.98212 11.7464 9.98212 13.6937C9.98212 14.7753 10.2445 15.4958 11.5253 15.4958C12.0926 15.4958 12.5209 15.3673 12.7983 15.1139C13.0312 14.9011 13.1544 14.6039 13.1544 14.2544C13.1544 13.2037 13.1544 12.6764 14.226 11.8383L14.2443 11.824C14.2915 11.7872 14.3461 11.7446 14.4061 11.696C14.5594 11.5724 14.5834 11.3481 14.4598 11.1949C14.3362 11.0416 14.1119 11.0176 13.9586 11.1412C13.9017 11.1872 13.8502 11.2273 13.8057 11.2621L13.7869 11.2767C12.504 12.2802 12.4416 13.0248 12.4416 14.2546C12.4416 14.4126 12.4416 14.783 11.5253 14.783C11.0778 14.783 10.9416 14.6895 10.8729 14.6078C10.7532 14.4655 10.6949 14.1665 10.6949 13.6937C10.6949 12.0456 11.3633 11.2474 12.0148 10.6859C12.1376 10.5817 12.2788 10.4733 12.4284 10.3585C13.1555 9.80017 14.0608 9.10529 14.0608 7.97607C14.0608 6.86829 13.1586 6.15253 11.7625 6.15253C10.2998 6.15253 9.83655 6.83569 9.49817 7.33447C9.26691 7.6756 9.16144 7.81403 8.8714 7.81403C8.49438 7.81403 7.93335 7.5813 7.93335 6.94043C7.93335 6.52423 8.17065 5.88336 8.83698 5.33295C9.34894 4.91016 10.2831 4.40588 11.8276 4.40588C14.3234 4.40588 16.0662 5.72314 16.0662 7.60913C16.0662 8.47925 15.6899 9.35156 14.9476 10.2021C14.8179 10.3504 14.8333 10.5754 14.9814 10.7049Z" fill="#393939"/>
</g>
<defs>
<clipPath id="clip0_1334_7203">
<rect width="24" height="24" fill="white"/>
</clipPath>
</defs>
</svg>
