<svg width="52" height="32" viewBox="0 0 52 32" fill="none" xmlns="http://www.w3.org/2000/svg">
<g id="Frame" clip-path="url(#clip0_1334_7105)">
<path id="Vector" d="M18.9693 24.9872C18.6569 24.6111 18.3563 24.2825 18.0934 23.9259C16.3835 21.6072 14.8201 19.1884 13.2427 16.7803C12.9367 16.3137 12.9335 15.9851 13.316 15.5315C16.266 12.0363 20.0845 9.97839 24.4309 8.78567C26.6289 8.1823 28.8818 7.88062 31.1541 7.84829C38.2997 7.74594 45.0391 6.04358 51.4143 2.85543C51.4811 2.82203 51.5555 2.80371 51.6945 2.75415C51.6934 3.22607 51.3367 3.42001 51.0911 3.65274C46.7608 7.7761 41.7227 10.6744 35.9573 12.3014C32.7164 13.2161 29.4959 14.1804 26.6289 16.0196C23.2662 18.1756 20.6124 20.9446 19.1374 24.721C19.1115 24.7878 19.0609 24.8439 18.9682 24.9882L18.9693 24.9872Z" fill="#59B58C"/>
<path id="Vector_2" d="M48.9136 9.50851C48.8414 10.0063 48.5354 10.3618 48.2348 10.7228C45.1048 14.4787 41.2724 17.2973 36.8182 19.3068C34.1279 20.521 31.5754 21.968 29.5099 24.1283C27.4746 26.2563 25.81 28.6083 25.1786 31.553C25.0838 31.9926 24.9211 32.1305 24.4847 31.8687C24.0893 31.6316 23.7155 31.3763 23.4289 31.0229C22.4721 29.842 21.4733 28.6977 20.5995 27.449C20.2472 26.9447 20.2256 26.5353 20.4659 25.9891C22.0583 22.3613 24.794 19.839 28.1987 17.9503C30.7242 16.5485 33.4943 15.8568 36.2709 15.1834C40.5472 14.1447 44.4616 12.3023 48.1152 9.8813C48.3156 9.74878 48.5128 9.61086 48.7164 9.4848C48.7487 9.46433 48.8123 9.4945 48.9125 9.50743L48.9136 9.50851Z" fill="#59B58C"/>
<g id="Group">
<path id="Vector_3" d="M12.3931 13.6114C12.2218 13.8419 12.0515 14.0736 11.7919 14.4248C11.6066 13.6997 11.2456 13.1739 10.917 12.6287C11.042 11.7312 10.9967 10.8283 10.9989 9.9276C11.0043 7.06161 10.9989 4.19454 11.0032 1.32855C11.0032 0.907268 10.9569 0.471982 11.2532 0.107807C12.5536 -0.0225635 12.6377 0.0410055 12.6409 1.31346C12.6495 5.00154 12.6431 8.68962 12.6463 12.3777C12.6463 12.8098 12.601 13.2246 12.3942 13.6103L12.3931 13.6114Z" fill="#2D6FA8"/>
<path id="Vector_4" d="M8.84892 0.475368C9.14737 0.327759 9.45875 0.252338 9.79383 0.290048C10.2205 0.134897 10.3746 0.409644 10.4791 0.736109C10.5524 0.965604 10.5491 1.20911 10.5491 1.4483C10.5545 4.3186 10.5642 7.18998 10.5394 10.0603C10.5351 10.4945 10.6827 11.0774 9.9673 11.183C9.53309 10.6529 9.09781 10.1228 8.6636 9.59267C8.50306 7.36022 8.63343 5.1256 8.59356 2.89207C8.58494 2.38675 8.58602 1.88035 8.59679 1.37503C8.60434 1.05503 8.60649 0.731799 8.84892 0.476446V0.475368Z" fill="#3069A4"/>
<path id="Vector_5" d="M12.3924 13.6113C12.3881 9.48796 12.3838 5.36459 12.3806 1.24014C12.3806 0.483781 12.0056 0.124274 11.2557 0.161626C11.1835 0.196104 11.1221 0.183174 11.0693 0.122838C11.886 -0.116354 12.6941 0.0431071 13.5033 0.17671C13.7576 0.426676 13.7543 0.753141 13.7554 1.06991C13.7694 4.59853 13.7554 8.12715 13.764 11.6568C13.764 11.8713 13.7285 12.0792 13.6606 12.2818C13.2975 12.7817 12.8687 13.2191 12.3924 13.6113Z" fill="#2C74AB"/>
<path id="Vector_6" d="M13.6605 12.2819C13.4547 11.9694 13.5043 11.6171 13.5043 11.2745C13.5032 7.57564 13.5032 3.87678 13.5032 0.176849C13.9568 0.245806 14.4082 0.322304 14.7929 0.602439C14.906 0.762977 14.9211 0.945065 14.9179 1.13469C14.8661 4.37348 14.8554 7.61335 14.9243 10.8521C14.9286 11.0428 14.9006 11.2217 14.8069 11.3887C14.4567 11.727 14.1259 12.0901 13.6605 12.2819Z" fill="#2B78AD"/>
<path id="Vector_7" d="M8.84951 0.475128C8.84951 3.21506 8.85382 5.95607 8.84412 8.696C8.84412 8.99876 8.97018 9.34355 8.66419 9.59136C8.2386 9.23149 7.81301 8.87055 7.38742 8.51068C7.12345 8.13789 7.15792 7.70799 7.15254 7.28563C7.12345 5.22341 7.21718 3.15903 7.08789 1.09789C7.632 0.76927 8.22782 0.585027 8.85058 0.475128H8.84951Z" fill="#3165A1"/>
<path id="Vector_8" d="M11.0695 0.122837C11.132 0.135766 11.1934 0.148696 11.2559 0.161625C11.2559 3.99193 11.2592 7.82331 11.2538 11.6536C11.2538 12.0092 11.3745 12.4229 10.9165 12.6287C10.6008 12.1471 10.2841 11.6644 9.96839 11.1828C10.3455 11.0147 10.2949 10.6764 10.2949 10.3607C10.2949 7.2792 10.2949 4.1988 10.2949 1.11732C10.2949 0.740211 10.3369 0.339403 9.79492 0.28984C10.2 0.0775845 10.6386 0.127147 11.0706 0.123914L11.0695 0.122837Z" fill="#2E6DA6"/>
<path id="Vector_9" d="M14.8074 11.3896C14.6565 10.9317 14.621 10.463 14.6231 9.9803C14.6339 7.29855 14.6339 4.61572 14.6231 1.93397C14.621 1.47929 14.6565 1.03646 14.7934 0.603333C15.1845 0.662592 15.4732 0.897474 15.7501 1.1539C16.0109 1.49545 16.0098 1.89626 16.0109 2.29707C16.012 4.71592 16.0109 7.13478 16.0109 9.55471C16.0109 9.95767 15.9915 10.3542 15.7512 10.7011C15.4711 10.978 15.1629 11.2172 14.8063 11.3896H14.8074Z" fill="#297CB0"/>
<path id="Vector_10" d="M7.08725 1.09689C7.48482 1.15615 7.40294 1.46646 7.40294 1.71858C7.40078 3.98228 7.39324 6.24598 7.38678 8.51077C6.79849 8.13689 6.20913 7.7641 5.62085 7.39023C5.43337 6.26322 5.61223 5.12976 5.56267 3.99952C5.53142 3.28949 5.62516 2.56868 5.31055 1.8942C5.86974 1.55588 6.45263 1.27036 7.08725 1.09797V1.09689Z" fill="#33619F"/>
<path id="Vector_11" d="M4.35394 6.70278C2.70438 6.00029 1.31448 4.94547 0 3.51894C1.60862 3.3918 2.97697 2.86601 4.34532 2.33914C4.51017 2.44689 4.61145 2.6085 4.64162 2.79167C4.83556 3.94345 4.82909 5.09739 4.65024 6.24918C4.62222 6.43234 4.51663 6.59288 4.35502 6.70278H4.35394Z" fill="#355C9B"/>
<path id="Vector_12" d="M15.7522 10.7002C15.7522 7.5174 15.7511 4.33572 15.75 1.15295C16.2058 1.4277 16.5764 1.79188 16.8684 2.2347C17.0677 2.74972 16.9535 3.28413 16.96 3.80885C16.9826 5.66959 16.9395 7.5314 16.9837 9.39215C16.9891 9.60548 17.0031 9.81881 16.8727 10.0074C16.4988 10.2379 16.125 10.4696 15.7522 10.7002Z" fill="#2880B3"/>
<path id="Vector_13" d="M16.8728 10.0075C16.7328 9.62819 16.708 9.23708 16.7101 8.8352C16.7198 7.05311 16.7209 5.27102 16.7101 3.49001C16.7069 3.06119 16.7457 2.6453 16.8696 2.23587C17.2553 2.60867 17.6012 3.01486 17.8619 3.48678C18.0042 5.28395 17.9115 7.08328 17.9136 8.88153C17.9136 9.12718 17.8199 9.3459 17.6777 9.54415C17.4094 9.69823 17.1411 9.85338 16.8739 10.0075H16.8728Z" fill="#2684B6"/>
<path id="Vector_14" d="M4.35444 6.70301C4.60118 5.24846 4.6098 3.79392 4.34583 2.33937C4.63673 2.12388 4.9632 1.98489 5.31121 1.89331C5.58273 1.91594 5.79498 2.04415 5.78529 2.32752C5.72603 4.01479 5.99754 5.71284 5.62152 7.38934C5.17222 7.21048 4.7337 7.01224 4.35552 6.70193L4.35444 6.70301Z" fill="#345F9D"/>
<path id="Vector_15" d="M17.6767 9.54405C17.6767 7.79536 17.6724 6.04667 17.6821 4.29799C17.6831 4.02108 17.5754 3.70539 17.862 3.4856C18.1885 3.74957 18.4233 4.08896 18.6485 4.4359C19.0418 5.9788 19.0579 7.52169 18.6399 9.06351C18.3188 9.22297 17.9977 9.38351 17.6767 9.54297V9.54405Z" fill="#2587B8"/>
<path id="Vector_16" d="M18.6397 9.06359C18.643 7.52069 18.6451 5.97887 18.6484 4.43597C19.0783 4.96392 19.5092 5.49187 19.9391 6.01981C19.9704 6.90008 20.3033 7.81914 19.6051 8.60675C19.283 8.75975 18.9608 8.91167 18.6387 9.06466L18.6397 9.06359Z" fill="#248CBB"/>
<path id="Vector_17" d="M19.6055 8.60686C19.9793 7.77831 19.5538 6.8474 19.9395 6.01993C20.6236 6.59851 21.1947 7.33225 22.1568 7.70397C21.3067 8.00457 20.4566 8.30518 19.6065 8.60686H19.6055Z" fill="#2393BF"/>
</g>
</g>
<defs>
<clipPath id="clip0_1334_7105">
<rect width="51.6946" height="32" fill="white"/>
</clipPath>
</defs>
</svg>
